# AST/ASF file generated using VICON BodyLanguage
# -----------------------------------------------
:version 1.10
:name VICON
:units
  mass 1.0
  length 0.45
  angle deg
:documentation
   .ast/.asf automatically generated from VICON data using
   VICON BodyBuilder and BodyLanguage model FoxedUp or BRILLIANT.MOD
:root
   order TX TY TZ RX RY RZ
   axis XYZ
   position 0 0 0  
   orientation 0 0 0 
:bonedata
  begin
     id 1 
     name lhipjoint
     direction 0.646657 -0.683706 0.338203 
     length 2.4948 
     axis 0 0 0  XYZ
  end
  begin
     id 2 
     name lfemur
     direction 0.34202 -0.939693 0  
     length 6.79491  
     axis 0 0 20  XYZ
    dof rx ry rz
    limits (-160.0 20.0)
           (-70.0 70.0)
           (-60.0 70.0)
  end
  begin
     id 3 
     name ltibia
     direction 0.34202 -0.939693 0   
     length 7.56807   
     axis 0 0 20   XYZ
    dof rx
    limits (-10.0 170.0)
  end
  begin
     id 4 
     name lfoot
     direction 0.0679796 -0.186772 0.980048   
     length 2.53018   
     axis -90 7.62852e-016 20   XYZ
    dof rx rz
    limits (-45.0 90.0)
           (-70.0 20.0)
  end
  begin
     id 5 
     name ltoes
     direction 1.53625e-011 -4.21881e-011 1   
     length 1.26912   
     axis -90 7.62852e-016 20   XYZ
    dof rx
    limits (-90.0 20.0)
  end
  begin
     id 6 
     name rhipjoint
     direction -0.618868 -0.704065 0.348274   
     length 2.42265  
     axis 0 0 0  XYZ 
  end
  begin
     id 7 
     name rfemur
     direction -0.34202 -0.939693 0   
     length 6.73814   
     axis 0 0 -20   XYZ
    dof rx ry rz
    limits (-160.0 20.0)
           (-70.0 70.0)
           (-70.0 60.0)
  end
  begin
     id 8 
     name rtibia
     direction -0.34202 -0.939693 0   
     length 7.66799   
     axis 0 0 -20   XYZ
    dof rx
    limits (-10.0 170.0)
 end
 begin
     id 9 
     name rfoot
     direction -0.0727352 -0.199838 0.977125   
     length 2.57224  
     axis -90 -7.62852e-016 -20   XYZ
    dof rx rz
    limits (-45.0 90.0)
           (-20.0 70.0)
  end
  begin
     id 10 
     name rtoes
     direction -1.53501e-011 -4.21858e-011 1   
     length 1.28858   
     axis -90 -7.62852e-016 -20   XYZ
    dof rx
    limits (-90.0 20.0)
  end
  begin
     id 11 
     name lowerback
     direction -0.0172471 0.995767 -0.0902851   
     length 2.20206   
     axis 0 0 0   XYZ
    dof rx ry rz
    limits (-20.0 45.0)
           (-30.0 30.0)
           (-30.0 30.0)
  end
  begin
     id 12 
     name upperback
     direction -0.000110737 0.999714 0.0239043   
     length 2.19523   
     axis 0 0 0   XYZ
    dof rx ry rz
    limits (-20.0 45.0)
           (-30.0 30.0)
           (-30.0 30.0)
  end
  begin
     id 13 
     name thorax
     direction 0.00704869 0.997783 0.0661741   
     length 2.21977   
     axis 0 0 0   XYZ
    dof rx ry rz
    limits (-20.0 45.0)
           (-30.0 30.0)
           (-30.0 30.0)
  end
  begin
     id 14 
     name lowerneck
     direction -0.00407501 0.995527 0.0943846   
     length 1.83142   
     axis 0 0 0   XYZ
    dof rx ry rz
    limits (-20.0 45.0)
           (-30.0 30.0)
           (-30.0 30.0)
  end
  begin
     id 15 
     name upperneck
     direction 0.0640586 0.986486 -0.150807   
     length 1.84616   
     axis 0 0 0   XYZ
    dof rx ry rz
    limits (-20.0 45.0)
           (-30.0 30.0)
           (-30.0 30.0)
  end
  begin
     id 16
     name head
     direction 0.0188017 0.99791 -0.0618239  
     length 1.85932  
     axis 0 0 0   XYZ
    dof rx ry rz
    limits (-20.0 45.0)
           (-30.0 30.0)
           (-30.0 30.0)
  end
  begin
     id 17 
     name lclavicle
     direction 0.976074 0.206905 0.066852  
     length 3.81043  
     axis 0 0 0   XYZ
    dof ry rz
    limits (-20.0 10.0)
           (0.0 20.0)
  end
  begin
     id 18 
     name lhumerus
     direction 1 -4.48971e-011 1.86916e-027   
     length 5.37587   
     axis 180 -30 -90   XYZ
    dof rx ry rz
    limits (-60.0 90.0)
           (-90.0 90.0)
           (-90.0 90.0)
  end
  begin
     id 19
     name lradius
     direction 1 -4.48968e-011 1.69187e-027   
     length 3.35977   
     axis 180 -30 -90   XYZ
    dof rx
    limits (-10.0 170.0)
  end
  begin
     id 20
     name lwrist
     direction 1 -4.48968e-011 5.8978e-027   
     length 1.67988   
     axis -3.27506e-015 90 90   XYZ
    dof ry
    limits (-180.0 0.0)
 end
  begin
     id 21 
     name lhand
     direction 1 -4.49028e-011 1.18071e-026   
     length 0.561859   
     axis -7.52654e-015 90 90   XYZ
    dof rx rz
    limits (-90.0 90.0)
           (-45.0 45.0)
  end
  begin
     id 22 
     name lfingers
     direction 1 -4.48927e-011 2.35758e-026   
     length 0.452985   
     axis -1.50534e-014 90 90   XYZ
    dof rx
    limits (0.0 90.0)
  end
  begin
     id 23
     name lthumb
     direction 0.707107 -6.34898e-011 0.707107   
     length 0.650399   
     axis -90 45 5.69224e-014   XYZ
    dof rx rz
    limits (-45.0 45.0)
           (-45.0 45.0)
  end
  begin
     id 24 
     name rclavicle
     direction -0.988403 0.151789 0.00439714   
     length 3.6942  
     axis 0 0 0   XYZ 
    dof ry rz
    limits (-10.0 20.0)
           (-20.0 0.0)
  end
  begin
     id 25 
     name rhumerus
     direction -1 -4.48978e-011 1.62495e-027  
     length 5.22819   
     axis 180 30 90   XYZ
    dof rx ry rz
    limits (-90.0 60.0)
           (-90.0 90.0)
           (-90.0 90.0)
  end
  begin
     id 26 
     name rradius
     direction -1 -4.48961e-011 3.47796e-027   
     length 3.40764   
     axis 180 30 90   XYZ
    dof rx
    limits (-10.0 170.0)
  end
  begin
     id 27 
     name rwrist
     direction -1 -4.48949e-011 5.89602e-027   
     length 1.70382   
     axis -3.27506e-015 -90 -90   XYZ
    dof ry
    limits (-180.0 0.0)
  end
  begin
     id 28
     name rhand
     direction -1 -4.48977e-011 1.17973e-026   
     length 0.583255   
     axis -7.52654e-015 -90 -90   XYZ
    dof rx rz
    limits (-90.0 90.0)
           (-45.0 45.0)
  end
  begin
     id 29
     name rfingers
     direction -1 -4.49099e-011 2.36408e-026   
     length 0.470235   
     axis -1.50534e-014 -90 -90   XYZ
    dof rx
    limits (0.0 90.0)
  end
  begin
     id 30
     name rthumb
     direction -0.707107 -6.35011e-011 0.707107   
     length 0.675167   
     axis -90 -45 -5.69224e-014   XYZ
    dof rx rz
    limits (-45.0 45.0)
           (-45.0 45.0)
  end
:hierarchy
  begin
    root lhipjoint rhipjoint lowerback
    lhipjoint lfemur
    lfemur ltibia
    ltibia lfoot
    lfoot ltoes
    rhipjoint rfemur
    rfemur rtibia
    rtibia rfoot
    rfoot rtoes
    lowerback upperback
    upperback thorax
    thorax lowerneck lclavicle rclavicle
    lowerneck upperneck
    upperneck head
    lclavicle lhumerus
    lhumerus lradius
    lradius lwrist
    lwrist lhand lthumb
    lhand lfingers
    rclavicle rhumerus
    rhumerus rradius
    rradius rwrist
    rwrist rhand rthumb
    rhand rfingers
  end

#!OML:ASF G:\JayActor3\Patient Classification 1\Patient 1\Session 2\male.ASF
:FULLY-SPECIFIED
:DEGREES
1617
root -31.6771 16.4738 -3.46615 -179.415 75.967 -187.545
lowerback 4.7578 0.0474024 1.14274
upperback 1.52123 0.164567 1.01699
thorax -1.10468 0.095762 0.392567
lowerneck -12.9087 -6.02679 -6.17502
upperneck -2.89428 -7.11106 10.892
head 1.8534 -3.10998 3.89828
rclavicle -4.73108e-014 3.4191e-014
rhumerus -47.6754 5.28108 -86.2922
rradius 45.5828
rwrist -5.49347
rhand -24.149 3.34687
rfingers 7.12502
rthumb 2.33348 -26.6201
lclavicle -4.73108e-014 3.4191e-014
lhumerus -45.9921 -38.308 110.3
lradius 90.4294
lwrist 15.7416
lhand -13.4176 17.3882
lfingers 7.12502
lthumb 12.6906 46.9826
rfemur -34.3072 -1.53565 19.6896
rtibia 46.2284
rfoot -24.3098 -4.92104
rtoes 13.6926
lfemur -1.94275 8.4657 -16.4369
ltibia 37.5317
lfoot -15.0849 0.98165
ltoes -13.5546
1618
root -31.5801 16.4772 -3.45619 -179.844 75.8655 -188.036
lowerback 4.75078 0.0775763 1.11393
upperback 1.45288 0.203252 1.03555
thorax -1.171 0.114161 0.425526
lowerneck -12.8652 -6.07337 -6.15643
upperneck -3.02792 -7.16549 11.0725
head 1.81991 -3.13321 3.94908
rclavicle -1.27222e-014 1.03368e-014
rhumerus -47.5591 5.25052 -86.2345
rradius 45.5718
rwrist -5.32394
rhand -24.1868 3.37966
rfingers 7.12502
rthumb 2.29691 -26.5877
lclavicle -1.27222e-014 1.03368e-014
lhumerus -46.5064 -37.6117 110.19
lradius 89.7038
lwrist 15.7802
lhand -13.6742 17.5335
lfingers 7.12502
lthumb 12.4432 47.1431
rfemur -34.0391 -1.51875 19.6544
rtibia 46.3354
rfoot -24.4113 -4.92099
rtoes 14.1233
lfemur -2.12802 8.5924 -16.6042
ltibia 37.3167
lfoot -15.5476 0.758291
ltoes -14.6315
1619
root -31.4856 16.4817 -3.44698 -180.277 75.6759 -188.492
lowerback 4.79948 0.0794244 1.10162
upperback 1.38421 0.206358 1.05119
thorax -1.26875 0.114873 0.448132
lowerneck -12.8118 -6.12562 -6.14773
upperneck -3.1515 -7.2276 11.261
head 1.78941 -3.16046 4.00344
rclavicle 3.29983e-014 -7.95139e-016
rhumerus -47.4556 5.18967 -86.1715
rradius 45.5687
rwrist -5.2201
rhand -24.2463 3.42517
rfingers 7.12502
rthumb 2.2395 -26.5428
lclavicle 3.29983e-014 -7.95139e-016
lhumerus -46.9964 -36.9006 110.058
lradius 88.9196
lwrist 15.8164
lhand -14.0435 17.6051
lfingers 7.12502
lthumb 12.0871 47.2359
rfemur -33.7283 -1.54493 19.6064
rtibia 46.4321
rfoot -24.4563 -4.96682
rtoes 14.7441
lfemur -2.32682 8.63624 -16.7916
ltibia 37.0943
lfoot -15.9932 0.639365
ltoes -15.5702
1620
root -31.3919 16.4874 -3.43884 -180.61 75.4677 -188.852
lowerback 4.83691 0.0742886 1.10989
upperback 1.31447 0.201137 1.07201
thorax -1.36126 0.111467 0.465031
lowerneck -12.7703 -6.18051 -6.15519
upperneck -3.2599 -7.29171 11.4569
head 1.76658 -3.18795 4.06208
rclavicle 7.83212e-014 -1.82882e-014
rhumerus -47.358 5.12136 -86.1052
rradius 45.5807
rwrist -5.18986
rhand -24.3121 3.46082
rfingers 7.12502
rthumb 2.17597 -26.5078
lclavicle 7.83212e-014 -1.82882e-014
lhumerus -47.4488 -36.1737 109.901
lradius 88.0833
lwrist 15.8504
lhand -14.5045 17.587
lfingers 7.12502
lthumb 11.6426 47.2435
rfemur -33.4247 -1.58761 19.5792
rtibia 46.5171
rfoot -24.4197 -5.04205
rtoes 15.5195
lfemur -2.57419 8.69285 -16.9691
ltibia 36.8866
lfoot -16.4142 0.587067
ltoes -16.3459
1621
root -31.2992 16.4945 -3.43211 -180.84 75.2408 -189.112
lowerback 4.86538 0.0625165 1.1436
upperback 1.24746 0.188471 1.09916
thorax -1.44592 0.104401 0.474658
lowerneck -12.7384 -6.23915 -6.17249
upperneck -3.36916 -7.35844 11.6512
head 1.74571 -3.21648 4.12147
rclavicle 1.09332e-014 8.74653e-015
rhumerus -47.2675 5.05717 -86.0379
rradius 45.6151
rwrist -5.23213
rhand -24.3758 3.49534
rfingers 7.12502
rthumb 2.11443 -26.4739
lclavicle 1.09332e-014 8.74653e-015
lhumerus -47.8662 -35.4382 109.718
lradius 87.2085
lwrist 15.8702
lhand -15.0082 17.4949
lfingers 7.12502
lthumb 11.1569 47.1783
rfemur -33.1298 -1.65812 19.5748
rtibia 46.5908
rfoot -24.2978 -5.14661
rtoes 16.3983
lfemur -2.87334 8.76167 -17.1357
ltibia 36.709
lfoot -16.7961 0.593039
ltoes -16.9183
1622
root -31.2075 16.503 -3.42657 -180.97 74.9929 -189.263
lowerback 4.89315 0.0442591 1.20061
upperback 1.18839 0.168831 1.13627
thorax -1.52202 0.0939663 0.481903
lowerneck -12.7252 -6.30352 -6.19735
upperneck -3.47956 -7.43016 11.837
head 1.72784 -3.24707 4.17877
rclavicle -3.37934e-015 6.36111e-015
rhumerus -47.1817 5.0043 -85.9682
rradius 45.674
rwrist -5.32958
rhand -24.4335 3.5201
rfingers 7.12502
rthumb 2.05866 -26.4497
lclavicle -3.37934e-015 6.36111e-015
lhumerus -48.2505 -34.7049 109.515
lradius 86.305
lwrist 15.8728
lhand -15.5211 17.3668
lfingers 7.12502
lthumb 10.6621 47.0763
rfemur -32.8296 -1.75348 19.597
rtibia 46.6547
rfoot -24.1262 -5.27159
rtoes 17.3011
lfemur -3.21397 8.84164 -17.2848
ltibia 36.5677
lfoot -17.1346 0.635561
ltoes -17.3049
1623
root -31.117 16.5128 -3.42217 -181.018 74.7253 -189.321
lowerback 4.92927 0.0232488 1.28219
upperback 1.13412 0.147372 1.17795
thorax -1.59784 0.0826347 0.480223
lowerneck -12.7177 -6.37387 -6.22302
upperneck -3.59568 -7.50838 12.0141
head 1.70952 -3.28103 4.23305
rclavicle 2.36554e-014 -7.95139e-016
rhumerus -47.1143 4.95886 -85.9024
rradius 45.7652
rwrist -5.46449
rhand -24.4735 3.52814
rfingers 7.12502
rthumb 2.0201 -26.442
lclavicle 2.36554e-014 -7.95139e-016
lhumerus -48.6213 -33.9914 109.303
lradius 85.3841
lwrist 15.8487
lhand -16.011 17.2835
lfingers 7.12502
lthumb 10.1896 47.0168
rfemur -32.5196 -1.86847 19.64
rtibia 46.7104
rfoot -23.9455 -5.3992
rtoes 18.1574
lfemur -3.59231 8.93047 -17.42
ltibia 36.4628
lfoot -17.4245 0.701192
ltoes -17.5479
1624
root -31.0277 16.5236 -3.41862 -181.006 74.4375 -189.304
lowerback 4.97381 0.000189873 1.37837
upperback 1.08773 0.124636 1.22579
thorax -1.67031 0.0707288 0.476822
lowerneck -12.7134 -6.44956 -6.2532
upperneck -3.72391 -7.59115 12.1849
head 1.68857 -3.31746 4.28596
rclavicle 2.22639e-014 0
rhumerus -47.06 4.92338 -85.8381
rradius 45.8827
rwrist -5.61486
rhand -24.4991 3.53155
rfingers 7.12502
rthumb 1.99532 -26.4389
lclavicle 2.22639e-014 0
lhumerus -48.9752 -33.3058 109.086
lradius 84.4529
lwrist 15.7933
lhand -16.4112 17.3266
lfingers 7.12502
lthumb 9.80343 47.0784
rfemur -32.1964 -2.00118 19.6983
rtibia 46.7605
rfoot -23.7841 -5.51273
rtoes 18.8869
lfemur -4.00215 9.02232 -17.5455
ltibia 36.3881
lfoot -17.6692 0.766802
ltoes -17.673
1625
root -30.9397 16.5351 -3.4152 -180.953 74.1212 -189.22
lowerback 5.04064 -0.023811 1.48498
upperback 1.04748 0.102177 1.27502
thorax -1.74897 0.0589646 0.469052
lowerneck -12.6959 -6.53134 -6.28408
upperneck -3.86581 -7.6808 12.3589
head 1.66257 -3.35794 4.33998
rclavicle -7.05686e-014 1.90833e-014
rhumerus -47.0317 4.88738 -85.7822
rradius 46.0277
rwrist -5.76156
rhand -24.5119 3.51519
rfingers 7.12502
rthumb 1.983 -26.4553
lclavicle -7.05686e-014 1.90833e-014
lhumerus -49.3338 -32.6656 108.872
lradius 83.5271
lwrist 15.7114
lhand -16.7747 17.4634
lfingers 7.12502
lthumb 9.45273 47.2314
rfemur -31.8414 -2.13751 19.7688
rtibia 46.8074
rfoot -23.6832 -5.597
rtoes 19.5182
lfemur -4.42507 9.10374 -17.656
ltibia 36.3361
lfoot -17.888 0.786762
ltoes -17.7341
1626
root -30.8527 16.5472 -3.41197 -180.873 73.792 -189.093
lowerback 5.11489 -0.0423788 1.59501
upperback 1.01207 0.087646 1.32273
thorax -1.82681 0.0511377 0.457354
lowerneck -12.6555 -6.6194 -6.3079
upperneck -4.02747 -7.77835 12.5324
head 1.62784 -3.40367 4.39298
rclavicle 2.46493e-014 -3.97569e-015
rhumerus -47.0275 4.84801 -85.7368
rradius 46.1906
rwrist -5.88279
rhand -24.5142 3.48488
rfingers 7.12502
rthumb 1.98077 -26.4857
lclavicle 2.46493e-014 -3.97569e-015
lhumerus -49.6985 -32.0848 108.665
lradius 82.6181
lwrist 15.6072
lhand -17.0979 17.7204
lfingers 7.12502
lthumb 9.1409 47.5023
rfemur -31.469 -2.2702 19.846
rtibia 46.854
rfoot -23.6322 -5.65058
rtoes 19.991
lfemur -4.86992 9.18243 -17.76
ltibia 36.2967
lfoot -18.0787 0.748077
ltoes -17.7871
